<?xml version="1.0" encoding="utf-8"?>
<svg xmlns="http://www.w3.org/2000/svg" xmlns:xlink="http://www.w3.org/1999/xlink" style="margin: auto; background: none; display: block; shape-rendering: auto;" width="300px" height="300px" viewBox="0 0 100 100" preserveAspectRatio="xMidYMid">
<g transform="translate(50 50)">
<g>
<animateTransform attributeName="transform" type="rotate" values="0;120" keyTimes="0;1" dur="4.166666666666666s" repeatCount="indefinite"></animateTransform><path d="M14.9248115565993 -1.5 L29.924811556599302 -1.5 L29.924811556599302 1.5 L14.9248115565993 1.5 A15 15 0 0 1 -6.163367672622989 13.675265954710566 L-6.163367672622989 13.675265954710566 L-13.663367672622986 26.665647011477148 L-16.261443883976302 25.165647011477148 L-8.761443883976305 12.175265954710568 A15 15 0 0 1 -8.761443883976312 -12.17526595471056 L-8.761443883976312 -12.17526595471056 L-16.26144388397632 -25.165647011477137 L-13.663367672623007 -26.66564701147714 L-6.163367672622999 -13.675265954710563 A15 15 0 0 1 14.9248115565993 -1.5000000000000029 M0 -12A12 12 0 1 0 0 12 A12 12 0 1 0 0 -12" fill="#7c507c"></path></g></g>
<!-- [ldio] generated by https://loading.io/ --></svg>